<svg width="197" height="63" viewBox="0 0 197 63" fill="none" xmlns="http://www.w3.org/2000/svg">
<path d="M43.3398 13.606V49.1296H53.8429V40.9336L54.2599 40.3539L58.1779 48.4021L58.595 49.1296H66.5738V49.2774H76.089V49.1296H84.6385V36.2274C84.6385 34.9543 84.8361 34.42 85.0556 34.1926C85.2751 33.9766 85.6043 33.8971 85.9665 33.8971C86.6359 33.8971 86.5481 33.863 86.6689 34.1131C86.7896 34.3631 86.8774 35.1702 86.8774 36.2161V49.1182H96.4585V44.1279C96.8317 44.7417 97.3146 45.3328 97.7865 45.8671C99.6742 48.027 102.319 49.4934 105.348 49.4934C107.159 49.4934 108.454 49.141 109.475 48.5499V49.1296H118.935V44.0483C119.462 44.935 120.142 45.7648 120.9 46.4355C123.084 48.3794 126.014 49.4024 129.296 49.4024C133.225 49.4024 136.989 47.7541 139.096 44.4689V49.1296H148.48V37.8189C148.48 36.432 148.721 35.9432 149.105 35.6477C149.489 35.3521 150.444 35.2157 151.695 35.2157C151.937 35.2157 152.047 35.2043 152.255 35.2157L153.66 35.2839V26.6559H152.398C151.509 26.6559 150.302 26.9401 149.105 27.3039C148.853 27.3835 148.655 27.4971 148.403 27.5994V26.9515H139.096V32.533C138.745 31.8054 138.328 31.1234 137.834 30.4982C135.859 28.0314 132.698 26.6559 128.67 26.6559C124.302 26.6559 120.834 28.9294 118.946 32.2374V19.6194H109.2V27.3039C108.728 27.2016 108.268 27.0652 107.796 27.0083C107.159 26.9288 106.61 26.8833 106.182 26.8605C105.974 26.8492 105.732 26.8605 105.623 26.8605H105.337C101.935 26.8833 99.301 28.3952 97.5011 30.555C97.0073 31.1461 96.6012 31.7827 96.239 32.442C95.8988 30.7824 95.1196 29.3614 94.066 28.3838C92.6392 27.0538 90.7735 26.4968 88.8858 26.4968C87.8103 26.4968 86.4933 26.69 85.2421 26.9287C84.9019 26.997 84.5727 27.0652 84.2654 27.1447V26.9287H76.089V19.6194H57.9694L57.4756 20.1309L53.8429 24.7007V13.606H43.3398ZM66.5738 23.905V27.0197L66.5079 28.4747H66.5738V43.4799L61.1851 31.7372L66.5738 23.905ZM106.61 34.0448C107.96 34.0448 108.443 34.5109 108.849 35.2043C109.266 35.8978 109.475 37.0004 109.475 38.1713C109.475 39.3649 109.255 40.5812 108.849 41.286C108.432 41.9908 107.96 42.3773 106.61 42.3773C105.26 42.3773 104.778 41.9908 104.371 41.286C103.954 40.5812 103.812 39.3649 103.812 38.1713C103.812 37.0004 103.965 35.8978 104.371 35.2043C104.788 34.5109 105.26 34.0448 106.61 34.0448ZM129.361 34.1244C129.592 34.1244 129.526 34.4313 129.713 34.4882H128.176C128.483 34.329 128.78 34.1244 129.361 34.1244ZM127.474 41.6611H130.558C130.108 42.0135 129.647 42.3886 129.296 42.3886C128.428 42.3886 127.957 42.1499 127.616 41.8089C127.572 41.7748 127.507 41.7066 127.474 41.6611Z" fill="white"/>
<path d="M52.527 15.0382V28.5088L58.5523 21.0403H66.8822L59.6168 31.5894L67.0798 47.7882H59.3644L54.4696 37.8074L52.527 40.4447V47.7882H44.7129V15.0382H52.527Z" fill="#231F20"/>
<path d="M152.353 28.0655H152.32C151.3 28.0655 147.656 28.9522 147.173 29.9184H147.107V28.3497H140.412V47.7882H147.162V37.8189C147.162 34.545 148.874 33.7834 151.629 33.7834C151.903 33.7834 152.145 33.7948 152.364 33.8061L152.353 28.0655ZM132.5 35.8978C132.5 34.1472 131.183 32.7262 129.328 32.7262C127.177 32.7262 125.937 33.8516 125.607 35.8978H132.5ZM125.563 40.2402C125.75 42.4 126.99 43.7868 129.251 43.7868C130.414 43.7868 131.698 42.9115 132.28 42.0021H138.799C137.34 46.0945 133.597 47.9929 129.295 47.9929C123.237 47.9929 118.682 44.4121 118.682 38.0917C118.682 32.5784 122.699 28.0882 128.68 28.0882C136.198 28.0882 139.205 32.874 139.205 40.2402H125.563ZM106.621 32.658C103.197 32.658 102.428 35.5454 102.428 38.1713C102.428 40.8427 103.197 43.73 106.621 43.73C110.045 43.73 110.813 40.8427 110.813 38.1713C110.813 35.5454 110.045 32.658 106.621 32.658ZM117.541 47.7428H110.813V45.5943H110.747C109.869 46.7993 108.805 48.152 105.391 48.152C100.211 48.152 96.0628 42.8547 96.0628 38.1144C96.0628 33.6583 99.3553 28.2587 105.49 28.2587C105.304 28.2587 109.825 28.327 110.495 29.35H110.561V20.9949H117.541V47.7428ZM76.4067 28.3611H83.0136L83.0465 29.1H83.1124C83.4965 28.5316 87.0743 27.8836 88.9181 27.8836C92.1338 27.8836 95.0751 29.9639 95.0751 34.3063V47.7655H88.2267V36.216C88.2267 34.0221 87.9853 32.4875 85.9768 32.4875C84.8025 32.4875 83.2441 33.1127 83.2441 36.1365V47.7541H76.3957L76.4067 28.3611ZM74.7495 47.7996H67.945V28.3383H74.7495V47.7996ZM74.7166 27.0538H67.9121L67.945 20.9949H74.7495L74.7166 27.0538Z" fill="#EE3224"/>
</svg>
