<svg width="197" height="83" viewBox="0 0 197 83" fill="none" xmlns="http://www.w3.org/2000/svg">
<path d="M176.639 30.8223C175.759 25.9649 172.362 21.5533 166.79 18.0604C152.417 9.04401 123.015 5.89867 91.8596 10.057C71.6058 12.7591 52.9808 18.1487 39.4185 25.2388C24.1998 33.1978 16.7364 42.6722 18.4096 51.925C20.0862 61.1812 30.543 68.2694 47.8538 71.8788C63.2873 75.1063 82.9391 75.3905 103.198 72.6836C123.446 69.9902 142.065 64.5906 155.642 57.4991C169.439 50.2843 176.872 41.8081 176.872 33.385C176.872 32.5256 176.793 31.6716 176.639 30.8223Z" fill="black"/>
<path d="M177.453 22.3586C176.689 19.2625 173.397 16.0707 169.863 15.02C166.568 14.04 163.241 14.4098 160.243 16.0875C157.878 17.4116 156.003 19.4834 154.893 21.9741C154.827 21.8838 154.762 21.7922 154.693 21.706C152.985 19.5851 150.199 17.5315 146.108 17.9262C142.913 18.2354 140.348 19.4888 137.252 22.2529C136.82 22.6382 136.398 23.0692 135.98 23.5124C134.513 22.166 132.4 21.6676 130.163 22.2058C128.556 22.5937 127.044 23.3662 125.255 24.7106C122.724 26.6153 120.487 28.8979 119.271 30.816C119.224 30.8888 119.181 30.9615 119.137 31.0356C119.033 30.3439 118.784 29.6441 118.437 29.0992C117.522 27.6599 115.694 26.1728 113.655 25.8825C112.747 25.7525 111.396 25.7518 109.824 26.3331C108.426 24.9928 106.596 23.765 103.845 23.5676C98.4554 23.181 91.8639 26.8093 87.0509 32.8097C85.6925 34.5042 84.5528 36.2978 83.6568 38.1217C84.0622 34.8053 84.6508 31.7711 85.4723 28.7544C86.4294 25.2413 85.0944 21.799 80.3312 19.9192C77.9982 18.9991 75.5283 18.9527 73.5544 19.7919C72.3597 20.3004 71.3469 21.12 69.8945 22.455C68.2716 23.9468 66.3641 25.9323 64.3553 28.2055C64.7131 27.1945 65.0419 26.2947 65.3272 25.5154L65.6426 24.654C66.0091 23.6471 66.1923 22.6617 66.1923 21.7343C66.1923 20.5866 65.9124 19.5265 65.356 18.622C64.1855 16.7193 61.6431 14.8893 59.0598 14.4192C56.8154 14.0104 55.02 14.1249 53.2367 14.7903C51.0279 15.6147 49.7614 16.8775 47.8788 18.8698C42.8229 24.2216 37.5743 31.0026 32.2795 39.0242C28.0901 45.3742 21.5522 56.3984 20.179 60.5769C19.3595 63.0662 19.4434 65.1892 20.4374 67.0676C21.626 69.3145 24.2006 71.2805 26.4081 71.9136C29.8109 72.8888 32.5815 71.2522 33.8205 67.5337C35.6998 61.899 39.2469 54.7253 43.4531 47.8891C42.8625 51.7053 42.5645 54.6156 42.5645 56.5735V56.595C42.6665 60.9116 43.388 63.3989 47.1459 65.6512C48.9748 66.7497 51.0051 67.1767 52.7146 66.8218C54.3724 66.479 55.5476 65.4916 56.5268 63.6226C60.531 55.9707 64.5513 49.8794 67.8675 45.3863C67.8608 45.8032 67.8568 46.2215 67.8568 46.6438C67.8568 48.9694 67.9521 50.8849 68.1374 52.3384C69.2837 61.2807 76.0317 64.5742 81.5493 62.8561C83.8461 62.1401 85.4099 60.6166 85.8401 58.6749C85.9925 57.9865 85.9764 57.3467 85.869 56.7627C90.3994 60.7453 97.8581 59.0857 104.481 52.8125C106.616 55.1375 109.251 56.6577 113.716 55.219C116.57 54.299 119.857 51.9403 122.084 49.2496C123.859 52.4832 128.757 54.6809 133.036 51.8831C135.021 50.5893 135.794 48.6724 136.414 47.1314C136.422 47.1152 136.431 47.1031 136.439 47.0863L136.507 46.9529L136.512 46.9415C136.526 46.9098 136.531 46.8977 137.278 45.1156C137.809 43.8823 138.681 41.9608 140.091 39.6291C140.952 38.2039 141.752 37.0104 142.516 36.019C142.069 36.6871 141.733 37.4785 141.55 38.3844C141.193 40.1436 141.535 42.3279 142.444 44.0824C145.318 49.6308 151.078 51.5753 156.311 51.1294C160.832 50.7442 165.196 48.267 167.701 44.6643C171.412 39.3246 169.842 33.6011 168.338 29.7606C167.95 28.7719 167.78 27.9792 167.85 27.5576C167.877 27.3898 167.945 27.3185 168.039 27.3077C168.14 27.2935 168.246 27.3824 168.353 27.5219C169.461 28.7625 170.605 29.8475 172.139 30.1068C173.626 30.3594 175.034 29.896 176.104 28.8002C177.239 27.6384 178.188 25.3363 177.453 22.3586ZM154.688 31.8304C155.073 33.0171 155.418 34.1735 155.418 35.2754C155.404 36.7754 154.656 37.2502 154.095 37.4758C153.103 37.8766 152.344 37.3115 151.472 36.1651C149.933 34.1439 147.805 32.9417 145.318 33.8125C144.548 34.0833 143.828 34.5359 143.22 35.1522C144.734 33.3875 146.139 32.4271 147.653 32.0486C148.198 31.9119 148.676 31.9085 149.033 32.0385C149.311 32.1395 149.418 32.2048 149.579 32.3032C149.736 32.3988 149.932 32.518 150.237 32.65C150.85 32.9134 151.345 32.9908 152.06 32.9376C153.002 32.8676 153.922 32.4291 154.656 31.7273C154.665 31.7617 154.676 31.796 154.688 31.8304ZM83.6508 57.5333C83.3065 59.0938 82.0279 60.2563 80.1681 60.8355C78.372 61.3959 76.2095 61.3333 74.5249 60.6746C71.4932 59.4878 69.8274 56.1896 69.3146 52.1875C69.126 50.7192 69.0434 48.8058 69.0434 46.6444C69.0434 44.139 69.1535 41.781 69.3676 39.3064C65.4325 44.112 59.9149 51.7336 54.4442 62.1866C53.6012 63.7977 52.7058 64.5129 51.444 64.7743C50.0286 65.0673 48.3023 64.6961 46.723 63.7465C44.7471 62.5624 43.878 60.5708 43.7954 57.7986L43.7504 56.5735C43.7504 53.9703 44.3001 49.5898 45.3854 43.553C45.6868 41.8719 45.9176 40.7889 46.2774 39.0478C39.6865 48.2272 34.1406 58.8486 31.666 66.2735C30.6566 69.3023 28.6028 70.7161 25.7041 69.8856C23.9469 69.3818 22.467 68.3628 21.4864 66.5093C20.6273 64.8854 20.6099 63.0622 21.3052 60.9493C22.6314 56.915 29.2116 45.8302 33.2701 39.6802C38.8724 31.1932 44.129 24.5698 48.7419 19.6875C50.6735 17.6427 51.7421 16.6169 53.6522 15.9043C55.3596 15.2672 56.9617 15.2443 58.8491 15.5877C60.8203 15.9467 62.4445 16.9442 63.317 18.3627C64.1654 19.7407 64.1607 21.543 63.4989 23.3608C62.5217 26.0448 60.874 30.3628 59.3081 36.1921C63.0123 31.3899 67.3172 26.4361 70.6959 23.3305C72.0523 22.0845 72.9785 21.3288 74.0181 20.887C75.6477 20.1933 77.8217 20.2067 79.8976 21.0258C82.8501 22.1903 84.1407 24.4594 83.2971 27.5555C82.1816 31.6553 81.5211 35.6196 81.1359 40.1153C80.7916 44.1295 80.8936 47.6426 81.2976 49.973C81.5064 51.1719 81.7809 52.2266 82.55 53.5763C83.0736 54.4943 84.028 55.8367 83.6508 57.5333ZM120.534 47.1112C118.527 49.744 115.224 52.2683 112.324 53.2032C109.279 54.1845 106.286 53.7878 104.639 51.054C104.36 50.5913 104.249 50.2754 104.036 49.6618C97.3856 56.7978 89.8329 58.7193 85.5971 54.9644C83.6286 53.2207 82.5809 50.8917 82.5225 47.4978C82.4447 42.9125 84.5421 37.8361 87.9764 33.5539C92.5458 27.8573 98.7675 24.3954 103.761 24.753C106.048 24.918 108.057 26.0004 109.474 27.7717C110.954 27.043 112.351 26.8968 113.489 27.0591C114.814 27.2484 115.841 27.9671 116.406 28.8548C116.773 29.4306 116.976 30.2193 116.976 30.8544C116.976 31.763 116.738 32.7336 116.225 34.0873C115.693 35.4896 115.012 37.5135 114.39 40.1571C114.527 40.0507 114.749 39.8466 114.818 39.7873C116.697 38.1608 119.139 37.9318 120.805 39.6223C122.239 41.0785 123.011 43.8608 120.534 47.1112ZM138.048 38.1278C136.688 40.3773 135.799 42.2746 135.156 43.7705C135.156 43.7705 134.42 45.5291 134.411 45.5493C134.411 45.5493 134.287 45.7965 134.288 45.7945C133.676 47.3173 133.009 48.927 131.361 50.0026C128.859 51.6359 124.991 51.5632 123.282 48.9445C122.828 48.2474 122.597 47.4473 122.641 46.532C122.685 45.5655 122.991 44.6219 123.566 43.5362C124.361 41.9729 124.698 40.898 125.095 39.652C123.544 40.0419 121.614 39.4129 120.505 38.0766C118.826 36.0554 119.005 33.4556 120.273 31.4545C121.375 29.7155 123.493 27.5252 125.968 25.6629C127.31 24.6527 128.765 23.767 130.439 23.3629C132.556 22.8537 134.748 23.4208 135.945 25.304C136.623 24.5577 137.338 23.7697 138.042 23.142C140.803 20.6762 143.143 19.4093 146.222 19.1109H146.223C149.168 18.8267 151.415 19.9252 152.741 21.5713C153.63 22.6772 154.142 24.2075 154.223 25.7754C154.293 27.1023 153.995 28.4143 153.303 29.403C152.697 30.284 151.807 30.8039 150.941 30.8686C150.379 30.9103 150.08 30.849 149.674 30.6726C149.141 30.4443 149.087 30.284 148.404 30.0368C147.798 29.8165 147.077 29.826 146.335 30.0112C143.683 30.6719 141.307 32.7356 138.048 38.1278ZM174.226 27.0834C173.482 27.8472 172.501 28.2533 171.306 28.0499C170.199 27.862 169.515 27.0888 168.692 26.0785C168.078 25.3269 167.265 24.8924 166.455 25.3066C165.492 25.799 165.292 26.9857 166.203 29.3121C168.162 34.3143 168.621 38.8916 165.698 43.0984C163.334 46.5003 159.27 48.7108 155.179 49.059C149.644 49.5318 145.5 47.3988 143.496 43.5321C142.688 41.9709 142.417 40.0722 142.714 38.6188C143.057 36.9168 144.256 35.4458 145.708 34.9353C147.204 34.4126 148.513 34.8006 149.664 36.0762C150.472 36.9727 150.913 37.8813 151.888 38.4127C152.723 38.8673 153.647 38.9387 154.536 38.5797C155.832 38.0584 156.586 36.9713 156.603 35.2747C156.603 33.9547 156.189 32.6137 155.815 31.4613C155.29 29.8448 155.047 28.3254 155.051 26.8941C155.055 25.5464 155.283 24.2405 155.699 23.1285C156.689 20.4748 158.542 18.4024 160.82 17.1267C163.5 15.6268 166.531 15.2705 169.525 16.1609C172.334 16.9954 174.633 19.1803 175.271 21.7606C175.844 24.0808 175.221 26.065 174.226 27.0834Z" fill="black" stroke="black" stroke-width="2.6945"/>
<path d="M96.0246 39.8272C97.9844 36.9775 100.666 35.0876 102.785 34.7219C103.376 34.6202 103.752 34.6464 104.221 34.7542C104.201 34.8801 104.2 35.1354 104.118 35.4358C103.713 37.158 100.891 40.9863 97.2381 43.4446C95.5655 44.5681 94.4997 44.7775 93.9023 44.9331C94.1272 43.0742 94.9145 41.4423 96.0246 39.8272Z" fill="black"/>
<path d="M88.2812 33.8005C84.7951 38.146 82.8393 43.1361 82.9131 47.4918C82.9675 50.6594 83.9031 52.9406 85.8549 54.6715C89.9222 58.2762 96.6808 55.7074 101.24 51.7956C102.085 51.0709 102.913 50.3482 103.761 49.4713L104.201 49.014L104.41 49.6154C104.614 50.2047 104.708 50.4122 104.972 50.8513C106.864 53.9906 110.316 53.439 112.204 52.8301C114.968 51.9384 118.274 49.5103 120.244 46.9247C122.534 43.9201 121.897 41.3284 120.514 39.9241C118.973 38.3602 116.874 38.5118 115.022 40.1376C114.254 40.7802 113.876 41.092 113.682 41.3062L113.966 40.2643C114.534 38.1561 115.315 35.3947 115.806 33.9648C116.258 32.6494 116.462 31.6735 116.462 30.802C116.462 30.1049 116.215 29.5095 116.007 29.1323C115.545 28.285 114.473 27.5873 113.401 27.4344C112.194 27.2619 110.731 27.5266 109.674 28.1079L109.386 28.2655L109.169 28.0176C107.817 26.3257 105.886 25.2993 103.731 25.1437C98.8407 24.7942 92.7753 28.1975 88.2812 33.8005ZM93.5559 44.7479C93.8666 43.1119 94.1485 41.8787 95.713 39.6022C97.6326 36.8098 100.315 34.7946 102.715 34.3433C103.339 34.2248 103.867 34.2241 104.327 34.3379L104.647 34.4181L104.621 34.7845C104.61 34.9246 104.592 35.1859 104.494 35.5388C104.036 37.4927 101.031 41.3634 97.4567 43.7679C95.8573 44.8422 94.8157 45.1028 94.1935 45.2591L93.472 45.4416L93.5559 44.7479Z" fill="#FFFAD1"/>
<path d="M146.258 19.5002C143.452 19.771 140.822 21.0897 138.351 23.4141C137.603 24.1172 136.866 24.8109 136.207 25.5828L135.911 25.9297L135.413 25.2211L135.253 25.0399C134.207 23.7717 132.491 23.2713 130.53 23.7427C128.786 24.1637 127.069 25.3228 126.201 25.9755C123.759 27.8135 121.714 29.8846 120.589 31.6566C119.319 33.6617 119.405 36.1402 120.803 37.824C122.007 39.2734 123.781 39.5011 125.1 39.2236L125.686 39.0418L125.508 39.6567C125.163 40.8306 124.822 41.9224 123.913 43.7119C123.559 44.3828 123.083 45.3984 123.029 46.5481C122.992 47.3463 123.185 48.0797 123.608 48.727C125.189 51.1537 128.851 51.1725 131.146 49.6713C132.719 48.6468 133.36 47.0519 133.925 45.6449C133.938 45.6167 134.06 45.3715 134.06 45.3715C134.056 45.3836 134.799 43.6109 134.799 43.6109C135.52 41.9298 136.407 40.0837 137.714 37.9224C140.879 32.6871 143.349 30.2718 146.243 29.5876C146.948 29.4198 147.764 29.335 148.261 29.4906C148.846 29.6738 149.237 29.9034 149.551 30.088C149.997 30.35 150.27 30.5197 150.927 30.4759C151.739 30.4227 152.465 29.9277 152.981 29.1781C154.335 27.2417 154.052 23.8242 152.435 21.8145C151.071 20.1205 148.85 19.2504 146.258 19.5002Z" fill="#FFFAD1"/>
<path d="M156.016 23.2835C155.603 24.3853 155.456 25.4205 155.456 26.7251C155.456 28.1564 155.648 29.7466 156.192 31.3334C156.568 32.4278 156.999 33.8638 156.999 35.2748C156.979 37.391 156.007 38.6747 154.113 39.0944C152.457 39.4601 151.106 38.8169 149.98 37.125C148.795 35.3401 147.439 34.7454 145.839 35.3058C144.514 35.7712 143.413 37.1337 143.097 38.6976C142.808 40.1208 143.116 41.9467 143.844 43.3523C145.851 47.2258 149.938 49.1143 155.147 48.6698C159.263 48.3189 163.214 46.0491 165.431 42.8607C168.484 38.472 167.493 33.8153 165.839 29.4522C164.954 27.1225 165.104 25.6058 166.283 24.9437C167.122 24.4938 168.262 24.8723 169.002 25.8415C169.647 26.6847 170.43 27.5684 171.362 27.726C172.339 27.893 173.184 27.5933 173.949 26.81C175.049 25.6839 175.334 24.0129 174.797 21.8428C174.196 19.4134 172.085 17.3309 169.416 16.5375C163.806 14.8692 157.966 18.0617 156.016 23.2835Z" fill="#FFFAD1"/>
<path d="M51.049 17.9512C47.4348 21.2818 40.8641 28.8447 33.5819 39.8925C29.5508 46.0094 22.9908 57.0713 21.676 61.0727C20.9988 63.1269 21.0887 64.9939 21.8572 66.3645C22.7358 67.9318 24.0922 68.9966 25.7869 69.3758C28.1837 69.912 30.4281 68.831 31.2925 66.153C33.5953 59.0218 39.2103 48.5694 45.9475 38.8768L47.0522 37.2947L46.4952 39.9302L45.767 43.6238C44.687 49.637 44.1394 53.994 44.1394 56.5736L44.1837 57.7845C44.385 60.614 45.2481 62.4541 46.8234 63.399C48.3758 64.3312 49.996 64.769 51.3383 64.3958C52.4491 64.0874 53.2921 63.5169 54.0995 62.0015C60.1441 50.6614 66.0926 42.7213 69.1008 38.9974L69.919 37.9851L69.7928 39.2823C69.5391 41.8908 69.4163 44.2966 69.4163 46.6378C69.4163 48.7836 69.5142 50.6843 69.7008 52.1371C70.2431 56.3668 72.0076 59.2683 74.6668 60.3096C76.2729 60.9386 78.3354 60.9972 80.0509 60.4625C81.7765 59.925 82.9195 58.8507 83.2719 57.439C83.6464 55.9694 82.9141 54.9288 82.2799 53.9226L82.1779 53.7603C81.6349 52.9642 81.1765 51.3423 80.9402 50.1105C80.3187 46.8776 80.4449 43.5854 80.7308 40.0838C81.051 36.1706 81.8631 31.4411 82.9034 27.4324C83.6437 24.5753 82.5591 22.482 79.7664 21.3801C77.8461 20.621 75.7528 20.5678 74.1688 21.238C73.1802 21.6562 72.2761 22.3931 70.9526 23.6101C67.7048 26.5958 63.618 31.1892 59.7434 36.2124L58.3547 38.179C59.9702 32.2878 62.5247 24.8972 63.1328 23.2282C63.7737 21.4677 63.663 19.8869 62.9482 18.6166C62.2012 17.2885 60.8099 16.359 58.7903 15.9643C55.7533 15.3743 52.9243 16.223 51.049 17.9512Z" fill="#FFFAD1"/>
<path d="M172.778 22.4497C172.769 22.3951 172.757 22.3413 172.745 22.2874C172.382 20.6682 170.975 19.206 168.8 18.5338C164.567 17.2265 159.715 19.4525 158.013 24.0116C157.306 25.8995 157.366 28.2588 158.165 30.6767C158.698 32.2966 159.276 34.276 159.011 36.3404C158.672 38.99 156.831 40.665 154.529 41.1453C152 41.6733 149.847 40.6859 148.254 38.2882C147.645 37.3722 147.237 37.028 146.521 37.2779C145.917 37.4907 145.315 38.2451 145.14 39.1133C144.957 40.0144 145.201 41.2052 145.696 42.0545C147.43 45.0355 151.09 46.4836 154.948 46.0828C158.539 45.7111 161.623 43.8932 163.45 41.3662C165.552 38.4579 165.744 34.6579 164.041 30.1642C162.654 26.5144 163.054 24.0325 165.115 22.8767C166.732 22.0072 168.785 22.5123 170.009 24.3059C170.545 25.0926 170.824 25.3189 171.256 25.3869C172.114 25.5243 173.148 24.5113 172.778 22.4497Z" fill="#E2001A"/>
<path d="M122.36 32.7882C121.477 34.1831 121.667 35.4486 122.359 36.1067C123.091 36.8017 124.152 36.5997 125.374 35.3692C125.868 34.8708 126.648 34.1615 127.131 33.8531C127.415 33.6726 127.933 33.3082 128.313 33.4517C128.731 33.6086 128.671 34.4161 128.657 34.7664C128.582 36.5229 127.537 41.1951 125.79 44.6348C125.038 46.0546 125.004 46.7591 125.407 47.3181C126.005 48.1533 128.11 48.2543 129.701 47.215C130.875 46.4479 131.379 45.2908 131.901 44.2489C132.683 42.6903 133.684 40.0205 135.687 36.7061C138.851 31.4722 142.056 27.9456 145.921 27.3677C147.357 27.1509 148.257 27.3711 148.91 27.8628C149.418 28.246 149.748 28.3888 150.193 28.3201C150.575 28.2608 150.847 28.0507 151.07 27.7274C151.919 26.5137 151.808 24.3382 150.849 23.1838C149.818 21.9459 148.438 21.3882 146.46 21.5795C144.235 21.7944 142.179 22.7117 139.709 24.9828C137.974 26.5791 136.399 28.5666 135.489 29.9453C135.211 30.3629 134.973 30.7145 134.688 30.6794C134.394 30.6437 134.436 30.1568 134.451 29.8503C134.519 28.4952 134.369 27.2324 133.695 26.414C133.038 25.6139 131.934 25.5614 131.016 25.7823C129.768 26.0833 128.69 26.7252 127.464 27.6473C125.271 29.296 123.369 31.1987 122.36 32.7882Z" fill="#E2001A"/>
<path d="M106.691 49.5037C107.743 50.9241 109.476 50.9639 111.438 50.3314C114.025 49.4983 116.605 47.5707 118.413 45.3736C119.634 43.8885 119.986 42.3226 118.97 41.2921C118.358 40.6711 117.379 40.8853 116.444 41.6592C115.782 42.2061 114.528 43.407 113.869 43.7531C112.695 44.3728 112.005 44.3701 111.533 43.9438C111.132 43.5821 111.095 42.7254 111.33 41.3251C111.72 39.0149 112.994 34.8054 113.712 33.0024C114.497 31.0351 114.475 30.6114 114.224 30.1541C114.037 29.8133 113.611 29.583 113.166 29.5203C112.37 29.4065 111.362 29.5877 110.668 29.9628C110.15 30.243 109.678 30.5993 109.249 31.1395C109.088 31.3395 108.951 31.4217 108.805 31.4001C108.652 31.3752 108.568 31.1691 108.498 30.9893C107.666 28.8273 105.876 27.4001 103.538 27.2317C99.6364 26.9515 94.1516 29.8133 89.9158 35.095C85.3364 40.8038 82.9941 48.9763 87.0271 52.3762C89.5876 54.5342 94.3126 54.1159 99.9089 49.6667C101.4 48.4826 103.496 46.4223 104.733 45.0389C105.018 44.7197 105.486 44.1175 105.777 44.36C105.925 44.4826 105.872 44.8153 105.858 44.9776C105.699 46.8493 105.943 48.4887 106.691 49.5037ZM92.1555 46.986C90.7259 45.7286 91.1347 42.0168 93.7213 38.2545C96.2805 34.532 100.216 31.9585 102.771 31.9477C103.912 31.9409 104.796 32.3215 105.551 33.0846C106.168 33.7089 106.544 34.4067 106.627 35.1577C106.86 37.0577 103.339 42.3489 98.6242 45.5198C95.6503 47.5154 93.3247 48.0145 92.1555 46.986Z" fill="#E2001A"/>
<path d="M78.6931 50.3987C78.1172 47.5949 78.0528 43.906 78.3776 39.9255C78.7072 35.8871 79.377 31.557 80.4388 27.5341C81.0603 25.1794 80.8482 24.0701 78.9971 23.34C77.6253 22.7979 76.0997 22.7063 74.9835 23.1784C74.2949 23.4694 73.5365 24.091 72.3707 25.1633C67.6933 29.4617 60.7266 37.8389 56.1848 44.8604C55.6686 45.579 55.3351 46.0646 54.8908 46.724C54.6814 47.0439 54.5008 47.2352 54.3793 47.215C54.2162 47.1867 54.2162 46.8863 54.2706 46.4802C54.3585 45.8161 54.3941 45.4888 54.5062 44.8233C55.8304 37.0064 59.0386 26.8093 60.9803 22.2328C61.3474 21.3673 61.5159 20.582 61.1682 19.7569C60.8521 19.0059 59.8869 18.3243 58.3889 18.032C55.4008 17.4515 53.5377 18.4395 52.1296 19.7946C48.0724 23.6977 41.6372 31.4876 35.3329 41.0543C31.0441 47.5598 24.8479 58.1435 23.668 61.7327C23.2948 62.8669 23.4935 63.7452 23.8358 64.3574C24.3647 65.301 25.4157 66.1288 26.5023 66.4743C27.6359 66.8299 28.8031 66.4413 29.3038 64.8882C32.7073 54.3456 41.3842 39.9699 49.2435 30.5851C49.5885 30.1722 49.7442 29.9857 50.014 29.7075C50.3174 29.4125 50.6 29.2051 50.8268 29.3182C51.0054 29.4064 50.9879 29.6954 50.8926 30.0699C50.7517 30.6221 50.757 30.5716 50.6027 31.1596C49.704 34.5643 48.6455 39.4709 47.8334 43.9962C46.7938 49.7845 46.0884 54.918 46.2642 57.3953C46.3629 58.7921 46.8616 60.0072 48.2207 60.8235C50.3805 62.1193 51.6389 61.5643 52.5725 59.8152C59.05 47.6609 65.753 38.8115 70.9243 33.265C71.427 32.6986 71.6982 32.4555 71.9277 32.2763C72.2049 32.085 72.3962 32.0547 72.5344 32.1443C72.7002 32.25 72.7002 32.5349 72.6673 32.7862C72.6143 33.1936 72.6076 33.2785 72.5344 33.7547C71.4552 40.8004 71.219 47.4837 71.7814 51.869C72.1479 54.7214 73.0707 56.6874 75.0674 57.4693C76.2138 57.9179 77.7897 57.9718 79.0669 57.5731C80.0186 57.2774 80.6985 56.7561 80.8744 56.0509C81.0791 55.2481 80.4616 54.4479 79.8106 53.3764C79.377 52.6617 78.9434 51.6138 78.6931 50.3987Z" fill="#E2001A"/>
<path d="M173.563 23.2888C173.552 23.2342 173.541 23.1803 173.528 23.1265C173.339 22.2792 172.851 21.5006 172.118 20.854C172.42 21.3046 172.632 21.7875 172.745 22.2866C172.757 22.3411 172.769 22.3943 172.778 22.4489C173.148 24.5105 172.115 25.5235 171.255 25.3854C170.824 25.3168 170.544 25.0911 170.008 24.3044C168.784 22.5109 166.731 22.0057 165.114 22.8752C163.054 24.031 162.653 26.5129 164.04 30.1627C165.744 34.6565 165.551 38.4565 163.449 41.3647C161.623 43.8918 158.539 45.7096 154.947 46.0814C151.662 46.4222 148.524 45.422 146.592 43.2782C148.348 46.1595 151.57 47.5039 155.365 47.1098C159.023 46.7307 162.349 44.7963 164.268 42.1426C166.368 39.235 166.744 35.4175 165.007 30.9366C164.078 28.5436 163.816 27.3178 164.074 25.9552C164.256 24.9948 164.788 24.3132 165.663 23.8249C167.266 22.9298 169.045 23.6828 170.408 25.5026C170.932 26.2011 171.338 26.4079 171.798 26.4193C173.028 26.453 173.888 25.0925 173.563 23.2888Z" fill="black"/>
<path d="M127.924 34.6463C128.106 34.5298 128.388 34.3378 128.665 34.253C128.651 33.9128 128.579 33.5505 128.313 33.4508C127.934 33.308 127.416 33.6717 127.132 33.8522C126.648 34.1607 125.868 34.8706 125.375 35.3683C124.369 36.3813 123.473 36.6952 122.778 36.388C122.875 36.5833 123 36.7564 123.15 36.8992C123.882 37.5943 124.945 37.3936 126.166 36.1624C126.66 35.6653 127.439 34.9541 127.924 34.6463Z" fill="black"/>
<path d="M151.733 23.8135C151.358 23.3656 150.919 22.9998 150.415 22.723C150.565 22.8645 150.71 23.0174 150.849 23.1824C151.808 24.3368 151.918 26.5122 151.069 27.7259C150.846 28.0492 150.575 28.2594 150.193 28.3186C149.748 28.388 149.417 28.2452 148.91 27.8613C148.257 27.3696 147.356 27.1494 145.92 27.3663C142.056 27.9442 138.85 31.4707 135.687 36.7046C133.684 40.0184 132.683 42.6882 131.901 44.2474C131.379 45.2893 130.875 46.4464 129.7 47.2136C128.466 48.0191 126.924 48.139 126.015 47.7625C126.058 47.8871 126.119 48.0009 126.197 48.1107C126.795 48.9452 128.84 49.0651 130.431 48.0258C131.605 47.2594 132.238 46.0295 132.76 44.9883C133.542 43.4291 134.474 40.8118 136.478 37.498C139.815 31.9738 142.76 28.815 146.618 28.2378C148.054 28.0209 149.083 28.3436 149.623 28.7564C150.128 29.143 150.383 29.2696 150.888 29.1922C151.326 29.1242 151.661 28.8015 151.884 28.4783C152.955 26.948 152.633 24.8965 151.733 23.8135Z" fill="black"/>
<path d="M114.225 30.1547C114.476 30.612 114.498 31.0357 113.713 33.003C112.995 34.8067 111.721 39.0162 111.331 41.3257C111.096 42.726 111.134 43.5827 111.534 43.9443C111.727 44.1195 111.96 44.2212 112.246 44.24C112.124 43.7719 112.125 43.0944 112.267 42.2026C112.675 39.6318 113.819 35.6897 114.537 33.886C115.321 31.918 115.234 31.2377 114.999 30.7703C114.825 30.4228 114.544 30.2059 114.194 30.1062C114.204 30.123 114.216 30.1379 114.225 30.1547Z" fill="black"/>
<path d="M92.1565 46.986C92.3296 47.1382 92.5283 47.2561 92.7498 47.3416C91.6705 45.8653 92.1759 42.4701 94.5747 38.9799C97.2124 35.1422 100.699 33.0879 103.26 32.9842C104.297 32.9418 105.495 33.2395 106.226 33.9628C106.052 33.6557 105.827 33.362 105.552 33.0839C104.797 32.3208 103.913 31.9409 102.772 31.947C100.217 31.9577 96.2815 34.5313 93.7223 38.2538C91.1363 42.0168 90.7269 45.7285 92.1565 46.986Z" fill="black"/>
<path d="M119.765 42.0329C119.63 41.9029 119.479 41.814 119.317 41.7581C119.868 42.7636 119.464 44.0985 118.413 45.3742C116.605 47.5712 114.025 49.4988 111.438 50.332C109.872 50.8371 108.454 50.9105 107.409 50.1993C107.427 50.2249 107.445 50.2532 107.464 50.2781C108.515 51.6985 110.206 51.8225 112.168 51.19C114.597 50.4067 117.279 48.4313 119.137 46.1764C120.471 44.5545 120.509 42.7508 119.765 42.0329Z" fill="black"/>
<path d="M105.858 44.9782C105.872 44.8165 105.925 44.4838 105.777 44.3606C105.485 44.1188 105.019 44.7209 104.733 45.0395C103.497 46.4222 101.4 48.4825 99.9091 49.6672C94.4055 54.0424 89.7469 54.5172 87.1582 52.4798C87.33 52.7425 87.5213 52.9924 87.7314 53.2288C89.918 55.6818 95.1626 54.8574 100.594 50.5388C102.085 49.354 104.3 47.0647 105.537 45.6827C105.625 45.5857 105.725 45.4746 105.831 45.3729C105.838 45.2429 105.848 45.1115 105.858 44.9782Z" fill="black"/>
<path d="M61.1684 19.7575C61.5161 20.5833 61.3476 21.3686 60.9805 22.2334C59.0388 26.81 55.8306 37.0064 54.5064 44.824C54.3943 45.4894 54.3587 45.8167 54.2708 46.4808C54.2164 46.8869 54.2164 47.1873 54.3795 47.2156C54.501 47.2352 54.6816 47.0446 54.891 46.7246C55.0265 46.5239 55.1507 46.3394 55.2735 46.1602C55.2863 46.0834 55.301 46.0006 55.3205 45.905C57.2414 36.1854 59.8227 28.1415 61.7443 23.3515C62.2436 22.1068 62.2892 21.3861 61.955 20.6271C61.7993 20.2755 61.5221 19.9374 61.1147 19.6484C61.1342 19.6835 61.153 19.7198 61.1684 19.7575Z" fill="black"/>
<path d="M50.8004 30.4247C50.8246 30.3365 50.8535 30.228 50.8931 30.0698C50.989 29.6953 51.0058 29.4063 50.8273 29.3181C50.6004 29.205 50.3179 29.4124 50.0145 29.7074C49.7447 29.9856 49.5883 30.1721 49.244 30.585C41.3846 39.9698 32.7077 54.3455 29.3042 64.8881C28.8035 66.4419 27.6371 66.8305 26.5028 66.4742C25.4994 66.155 24.5275 65.4242 23.9678 64.5708C23.9966 64.8174 24.0611 65.0719 24.1671 65.3629C24.5403 66.3779 25.3685 67.2771 26.7531 67.6084C28.1371 67.9384 29.5646 67.2925 30.1492 65.5939C34.0588 54.2108 41.7873 41.5021 50.185 31.1144C50.4219 30.8302 50.6145 30.6194 50.8004 30.4247Z" fill="black"/>
<path d="M72.629 33.0987C72.6397 33.0118 72.6518 32.9148 72.6692 32.7862C72.7021 32.535 72.7021 32.2501 72.5363 32.1443C72.3974 32.0547 72.2068 32.085 71.9296 32.2763C71.7001 32.4555 71.4282 32.6986 70.9262 33.265C65.7548 38.8115 59.0526 47.6615 52.5744 59.8152C51.6402 61.5644 50.3817 62.1193 48.2226 60.8235C47.8125 60.577 47.4823 60.2941 47.2158 59.9809C47.4259 60.8241 47.8514 61.4512 48.5548 61.9146C50.522 63.2118 52.4476 62.3429 53.3617 60.6275C59.8405 48.4731 66.6213 39.5173 71.7934 33.9709C72.1511 33.5661 72.4202 33.29 72.629 33.0987Z" fill="black"/>
<path d="M80.9988 54.2781C80.4357 53.344 80.0222 52.3566 79.8095 51.151C79.3423 48.504 79.0833 44.7222 79.4074 40.7417C79.737 36.704 80.2719 32.6487 81.3095 28.5692C81.8223 26.5554 81.6841 25.3343 80.5464 24.5725C80.8766 25.2642 80.7921 26.1984 80.4404 27.5333C79.3786 31.5562 78.7088 35.8863 78.3792 39.9247C78.0544 43.9052 78.1181 47.5948 78.6947 50.398C78.9457 51.613 79.3793 52.661 79.8135 53.3749C80.4645 54.4465 81.082 55.2467 80.8773 56.0495C80.7008 56.7547 80.0216 57.276 79.0699 57.5716C77.7926 57.9704 76.2167 57.9165 75.0704 57.4679C74.7059 57.3251 74.3777 57.1419 74.0811 56.9217C74.5623 57.5615 75.1724 58.0438 75.9449 58.3462C77.0912 58.7948 78.5316 58.8278 79.8095 58.4297C80.7612 58.134 81.5626 57.509 81.7391 56.8032C81.9418 56.0023 81.7633 55.547 80.9988 54.2781Z" fill="black"/>
<path d="M175.271 21.7613C174.633 19.1804 172.334 16.9962 169.525 16.1617C166.531 15.2713 163.5 15.6276 160.82 17.1275C158.542 18.4032 156.689 20.4756 155.699 23.1292C155.283 24.2406 155.055 25.5465 155.051 26.8949C155.047 28.3261 155.29 29.8449 155.815 31.462C156.189 32.6144 156.603 33.9554 156.603 35.2755C156.587 36.9728 155.832 38.0592 154.536 38.5805C153.646 38.9395 152.723 38.8681 151.888 38.4134C150.913 37.882 150.472 36.9735 149.664 36.077C148.514 34.8014 147.204 34.4134 145.708 34.9361C144.256 35.4466 143.057 36.9176 142.714 38.6195C142.417 40.073 142.687 41.9717 143.496 43.5329C145.499 47.3996 149.644 49.5319 155.179 49.0598C159.27 48.7109 163.333 46.5011 165.698 43.0991C168.621 38.8923 168.162 34.3151 166.202 29.3128C165.292 26.9865 165.492 25.7998 166.455 25.3074C167.265 24.8925 168.078 25.3276 168.692 26.0793C169.515 27.0895 170.199 27.8627 171.306 28.0507C172.5 28.2541 173.481 27.8479 174.226 27.0842C175.22 26.0651 175.843 24.0809 175.271 21.7613ZM171.798 26.4214C171.338 26.4093 170.932 26.2032 170.409 25.5048C169.046 23.6849 167.266 22.9326 165.664 23.827C164.788 24.3153 164.256 24.9969 164.074 25.9574C163.816 27.3192 164.078 28.545 165.007 30.9387C166.744 35.4196 166.369 39.2372 164.268 42.1447C162.35 44.7984 159.024 46.7328 155.365 47.112C151.57 47.5053 148.347 46.1616 146.592 43.281C146.591 43.2796 146.59 43.2776 146.588 43.2763C146.696 43.7033 146.856 44.1323 147.051 44.531C147.916 46.295 149.305 47.5194 151.037 48.1856C148.219 47.5477 145.832 45.8478 144.3 43.2143C143.538 41.909 143.228 40.108 143.5 38.7798C143.787 37.3513 144.765 36.1208 145.955 35.7025C147.041 35.3227 147.971 35.5766 148.7 36.2124C148.12 35.9719 147.314 36.9162 147.585 37.4645C147.798 37.6463 148.008 37.9204 148.253 38.2888C148.799 39.1099 149.41 39.7659 150.081 40.2522C149.849 39.9814 149.899 39.516 150.1 39.1725C150.286 38.8593 150.642 38.5508 150.934 38.7913C151.962 39.6062 153.454 39.8312 154.748 39.3496C156.569 38.6721 157.403 37.0805 157.403 35.2755C157.403 33.851 156.985 32.444 156.577 31.2068C156.093 29.7432 155.85 28.2857 155.85 26.9084C155.85 25.663 156.048 24.4823 156.446 23.4216C158.411 18.162 164.052 15.3103 169.292 16.9288C170.893 17.4232 172.426 18.4133 173.314 19.6519C172.742 19.2477 171.826 20.2533 172.121 20.8554C172.852 21.502 173.34 22.2799 173.53 23.1272C173.542 23.1818 173.553 23.2357 173.564 23.2895C173.887 25.0926 173.028 26.4531 171.798 26.4214Z" fill="#D39F45"/>
<path d="M154.222 25.7748C154.141 24.2062 153.63 22.6759 152.74 21.5707C151.415 19.9253 149.168 18.8261 146.222 19.1103H146.221C143.143 19.4087 140.802 20.6762 138.042 23.1413C137.338 23.769 136.623 24.5571 135.944 25.3033C134.747 23.4208 132.556 22.8531 130.439 23.3622C128.764 23.7663 127.31 24.6527 125.967 25.6623C123.492 27.5246 121.374 29.7149 120.272 31.4539C119.005 33.4543 118.825 36.0547 120.504 38.076C121.613 39.4122 123.543 40.0406 125.095 39.6513C124.697 40.898 124.36 41.9723 123.565 43.5355C122.99 44.6212 122.685 45.5648 122.64 46.5313C122.596 47.4466 122.828 48.2468 123.281 48.9439C124.99 51.5632 128.859 51.6359 131.36 50.002C133.009 48.9264 133.676 47.3167 134.288 45.7938C134.286 45.7952 134.411 45.5487 134.411 45.5487C134.42 45.5291 135.155 43.7699 135.155 43.7699C135.799 42.274 136.687 40.3767 138.048 38.1272C141.306 32.7356 143.682 30.672 146.334 30.0099C147.076 29.8253 147.796 29.8152 148.403 30.0355C149.086 30.2833 149.14 30.443 149.672 30.6713C150.079 30.8477 150.377 30.909 150.94 30.8673C151.807 30.8019 152.696 30.282 153.301 29.4017C153.994 28.4143 154.293 27.1023 154.222 25.7748ZM151.885 28.479C151.663 28.8023 151.328 29.1249 150.89 29.1929C150.385 29.2704 150.13 29.1437 149.625 28.7571C149.084 28.3443 148.056 28.0217 146.62 28.2385C142.761 28.8157 139.817 31.9745 136.48 37.4988C134.476 40.8125 133.543 43.4291 132.762 44.989C132.239 46.0302 131.608 47.2601 130.433 48.0266C128.842 49.0658 126.797 48.9466 126.199 48.1114C126.12 48.003 126.06 47.8878 126.017 47.7639C126.017 47.7639 126.014 47.7632 126.013 47.7625C126.051 48.366 126.373 48.9675 126.873 49.3891C127.392 49.8249 128.161 50.1104 128.735 50.1697C126.784 50.5812 124.836 49.9138 124.002 48.5189C123.578 47.8077 123.475 47.2096 123.475 46.5691C123.475 45.618 123.801 44.8927 124.299 43.8709C125.356 41.6968 125.83 40.1571 126.366 38.113C126.759 36.8394 127.547 35.3347 128.666 34.2578C128.666 34.2564 128.666 34.2544 128.665 34.2537C128.388 34.3379 128.106 34.5299 127.923 34.6464C127.438 34.9542 126.659 35.6654 126.165 36.1625C124.944 37.3944 123.882 37.5944 123.149 36.8993C123 36.7565 122.874 36.5834 122.777 36.3881C122.776 36.3874 122.776 36.3874 122.775 36.3868C122.734 37.1431 122.966 37.8948 123.444 38.3595C123.814 38.7178 124.15 38.8397 124.544 38.9435C123.381 39.1381 122.021 38.5104 121.172 37.585C120.491 36.8421 120.136 35.8991 120.099 34.8855C120.061 33.818 120.325 32.8683 120.948 31.8856C121.978 30.2604 123.989 28.1584 126.451 26.3069C127.563 25.4697 128.939 24.5544 130.625 24.1469C132.247 23.7562 133.753 24.1038 134.736 25.073C134.434 24.9275 134.101 25.145 133.901 25.4475C133.705 25.7458 133.599 26.1641 133.714 26.4369C134.37 27.2559 134.517 28.5066 134.45 29.8482C134.435 30.1547 134.393 30.6416 134.687 30.6773C134.692 30.678 134.699 30.6773 134.705 30.678C135.018 28.9242 135.68 26.8376 136.5 25.894C137.138 25.1612 137.837 24.4224 138.577 23.7414C141.23 21.3019 143.663 20.1603 146.297 19.9057C148.428 19.7003 150.185 20.2283 151.535 21.4771C150.881 21.2696 150.236 22.189 150.418 22.7251C150.919 23.0019 151.358 23.3663 151.731 23.8135C152.634 24.8965 152.956 26.9481 151.885 28.479Z" fill="#D39F45"/>
<path d="M120.805 39.6224C119.14 37.9312 116.697 38.1608 114.819 39.7874C114.749 39.8467 114.527 40.0507 114.39 40.1572C115.012 37.5136 115.693 35.4897 116.225 34.0874C116.737 32.7336 116.976 31.7631 116.976 30.8545C116.976 30.2194 116.773 29.4307 116.407 28.8548C115.841 27.9671 114.815 27.2485 113.489 27.0592C112.351 26.8969 110.954 27.0437 109.474 27.7718C108.057 25.9998 106.048 24.9181 103.761 24.7531C98.7676 24.3954 92.5458 27.8573 87.9765 33.554C84.5415 37.8362 82.4447 42.9125 82.5226 47.4979C82.581 50.8917 83.6287 53.2208 85.5972 54.9645C89.8336 58.7194 97.3856 56.7978 104.036 49.6619C104.249 50.2754 104.36 50.5913 104.639 51.054C106.286 53.7879 109.279 54.1839 112.324 53.2032C115.225 52.2677 118.527 49.7434 120.534 47.1112C123.01 43.8608 122.238 41.0785 120.805 39.6224ZM119.321 41.7595C119.482 41.8154 119.631 41.9036 119.764 42.0322C120.509 42.7502 120.47 44.5546 119.136 46.1757C117.278 48.4313 114.596 50.4061 112.168 51.1894C110.206 51.8212 108.514 51.6979 107.464 50.2775C107.444 50.2519 107.427 50.2243 107.409 50.1987C107.395 50.1899 107.381 50.1818 107.369 50.1724C107.491 50.7085 107.736 51.2177 108.169 51.6932C108.593 52.1593 109.467 52.7129 110.328 52.7769C107.995 53.1069 106.257 52.0603 105.39 50.6466C104.444 49.1055 105.015 46.8755 105.826 45.4631C105.827 45.4328 105.828 45.4032 105.829 45.3736C105.724 45.4746 105.624 45.5857 105.536 45.6827C104.298 47.0654 102.083 49.3541 100.592 50.5388C95.1607 54.8574 89.9162 55.6811 87.7295 53.2288C87.5195 52.9924 87.3282 52.7419 87.1564 52.4799C87.155 52.4785 87.1537 52.4772 87.1523 52.4765C87.3409 53.344 87.6617 54.0822 88.1799 54.6358C88.8531 55.3558 89.3766 55.5862 90.4431 55.9317C88.7591 55.9654 87.3335 55.3962 85.9026 54.1064C84.1837 52.5573 83.3159 50.1347 83.3045 47.4204C83.2871 43.1179 85.2851 38.1878 88.6088 34.0423C93.0157 28.5484 98.9226 25.2164 103.656 25.5559C105.157 25.6643 106.532 26.1991 107.644 27.0693C107.433 27.0767 107.195 27.1616 106.996 27.363C106.694 27.6687 106.581 28.1321 106.73 28.4877C107.501 29.1242 108.106 29.9742 108.495 30.9892C108.565 31.169 108.649 31.3751 108.802 31.4C108.809 31.4 108.816 31.4 108.822 31.4007C108.844 30.7124 109.028 29.5519 109.273 28.8413C109.468 28.7073 109.655 28.6009 109.871 28.4844C110.875 27.9408 112.262 27.6943 113.398 27.8566C114.207 27.9718 114.917 28.3598 115.388 28.9188C114.806 28.6379 114.119 29.4401 114.16 30.0618C114.171 30.0759 114.181 30.0921 114.19 30.1062C114.541 30.2052 114.822 30.4228 114.996 30.7703C115.23 31.2377 115.318 31.918 114.533 33.886C113.815 35.6897 112.672 39.6318 112.263 42.2026C112.122 43.095 112.12 43.7713 112.243 44.2394C112.503 43.3005 113.18 42.202 114.463 41.1506L115.398 40.3518C116.805 39.1873 118.766 38.7064 120.149 40.1046C120.254 40.2104 120.362 40.3296 120.454 40.4488C119.95 40.2238 119.133 41.0704 119.321 41.7595Z" fill="#D39F45"/>
<path d="M82.5507 53.577C81.7815 52.2273 81.507 51.1725 81.2983 49.9737C80.8942 47.644 80.7922 44.1302 81.1365 40.116C81.5218 35.6203 82.1822 31.6559 83.2977 27.5562C84.1413 24.4601 82.85 22.191 79.8982 21.0264C77.8216 20.2074 75.6484 20.194 74.0188 20.8877C72.9798 21.3295 72.0536 22.0852 70.6965 23.3312C67.3178 26.4362 63.0129 31.3906 59.3088 36.1928C60.8746 30.3635 62.5223 26.0462 63.4995 23.3615C64.1606 21.5437 64.1653 19.7414 63.3176 18.3633C62.4451 16.9449 60.8202 15.9481 58.8497 15.5884C56.9617 15.2449 55.3603 15.2678 53.6528 15.905C51.742 16.6176 50.6742 17.6434 48.7425 19.6882C44.1296 24.5705 38.873 31.1939 33.2708 39.6809C29.2109 45.8309 22.6301 56.9157 21.3045 60.95C20.6092 63.0629 20.6259 64.8861 21.4857 66.51C22.4663 68.3635 23.9462 69.3825 25.7033 69.8863C28.6014 70.7161 30.6559 69.303 31.6653 66.2742C34.1399 58.8493 39.6858 48.2279 46.2767 39.0485C45.9169 40.7896 45.686 41.8733 45.3847 43.5537C44.3001 49.5898 43.7497 53.971 43.7497 56.5742L43.7947 57.7993C43.8772 60.5715 44.7464 62.5631 46.7223 63.7472C48.3023 64.6968 50.0278 65.0673 51.4433 64.775C52.7051 64.5136 53.6005 63.7984 54.4435 62.1873C59.9142 51.7343 65.4318 44.1127 69.3669 39.3071C69.1521 41.7817 69.0427 44.1396 69.0427 46.6451C69.0427 48.8065 69.1259 50.7199 69.3139 52.1882C69.8266 56.1903 71.4925 59.4885 74.5242 60.6753C76.2088 61.3346 78.3713 61.3966 80.1673 60.8362C82.0271 60.2577 83.3064 59.0945 83.65 57.5339C84.0272 55.8367 83.0728 54.4944 82.5507 53.577ZM81.7379 56.8045C81.5614 57.5104 80.76 58.1354 79.8083 58.4311C78.531 58.8291 77.09 58.7961 75.9437 58.3476C75.1718 58.0452 74.5617 57.5629 74.0805 56.9237C74.0792 56.9224 74.0765 56.921 74.0765 56.921C74.4718 58.8924 75.8826 60.1277 78.1028 60.2624C76.8585 60.3607 75.5504 60.1789 74.4825 59.6704C71.6086 58.2997 70.5146 55.1403 70.122 52.0825C69.932 50.5987 69.8407 48.7135 69.8407 46.6377C69.8407 44.3592 69.9669 41.9696 70.132 39.7907C70.281 37.8281 71.5864 34.9616 72.6274 33.0986C72.4187 33.2899 72.1489 33.566 71.7912 33.9708C66.6191 39.5173 59.8383 48.4731 53.3595 60.6274C52.4454 62.3429 50.5198 63.2117 48.5526 61.9145C47.8499 61.4511 47.4264 60.8248 47.2163 59.9835C47.2116 59.9782 47.2069 59.9741 47.2029 59.9694C47.1358 61.6128 47.7982 63.108 49.1392 63.8765C48.4419 63.7377 47.7814 63.4522 47.2022 63.0777C45.2874 61.8384 44.7712 60.0091 44.5934 57.5144C44.5739 57.2336 44.5645 56.9197 44.5645 56.5735C44.5645 54.0182 45.1088 49.6969 46.1861 43.6985C46.4505 42.2262 46.7626 40.6353 47.074 39.1475C47.7868 35.7442 49.6594 32.2136 50.799 30.4254C50.6124 30.6201 50.4198 30.8309 50.1829 31.1144C41.7859 41.5015 34.058 54.2101 30.1478 65.594C29.5639 67.2926 28.1356 67.9385 26.7517 67.6085C25.3671 67.2771 24.5389 66.3779 24.1657 65.3629C24.0596 65.072 23.9952 64.8174 23.9663 64.5716C23.9663 64.5716 23.9657 64.5709 23.9657 64.5695C23.8019 65.4162 23.9033 66.151 24.1657 66.9107C24.4503 67.7337 25.0422 68.5554 25.9409 69.0808C24.6993 68.8087 22.9643 67.5175 22.2367 65.957C21.6105 64.6167 21.4307 63.1727 22.0783 61.206C23.3811 57.2383 29.9169 46.2249 33.9359 40.1275C40.8637 29.6185 47.3492 22.0556 51.0534 18.5041C53.0273 16.6108 55.6422 15.7885 58.7081 16.3839C60.4457 16.7227 61.7639 17.5396 62.4794 18.6927C61.8471 18.3209 61.0155 19.1783 61.1182 19.6491C61.5236 19.938 61.8008 20.2741 61.9558 20.6257C62.2901 21.3841 62.2445 22.1054 61.7451 23.3501C59.8235 28.1408 57.2422 36.1847 55.3213 45.9036C55.3019 45.9992 55.2871 46.0821 55.2744 46.1582C55.277 46.1555 55.2791 46.1521 55.2804 46.1501C56.2684 42.895 57.9369 39.3058 59.9793 36.6474C63.7479 31.7408 67.9648 26.9352 71.2408 23.9246C72.5288 22.7399 73.4033 22.0239 74.3342 21.6306C75.8182 21.0035 77.7914 21.0581 79.6103 21.7768C80.7694 22.2341 81.4822 22.8618 81.901 23.5555C81.3137 23.1804 80.458 24.0593 80.5472 24.5739C81.6828 25.3356 81.8211 26.5567 81.309 28.5699C80.2714 32.6494 79.7365 36.7047 79.4069 40.7424C79.0827 44.7222 79.3411 48.5047 79.8089 51.1517C80.0217 52.3573 80.4358 53.344 80.9982 54.2788C81.762 55.5471 81.9406 56.0024 81.7379 56.8045Z" fill="#D39F45"/>
<path d="M92.9796 46.8662C93.2783 46.4041 93.5602 46.1495 94.0119 45.9279C94.279 45.8013 94.7582 45.6397 94.9153 45.5865C95.6005 45.3541 96.5133 44.9156 97.6926 44.1236C99.6557 42.8021 101.388 41.1217 102.834 39.248C103.381 38.5408 103.869 37.8396 104.308 37.0462C105.059 35.6938 105.167 34.8101 105.693 34.3198C105.821 34.2006 106.018 34.0598 106.231 33.9656C105.5 33.2402 104.3 32.9418 103.261 32.9836C100.699 33.0873 97.2127 35.1422 94.575 38.9792C92.1749 42.4714 91.6708 45.868 92.7528 47.3437C92.8145 47.1612 92.8984 46.9914 92.9796 46.8662ZM96.0254 39.8272C97.9852 36.9775 100.667 35.0876 102.785 34.7219C103.377 34.6202 103.753 34.6465 104.222 34.7542C104.202 34.8802 104.201 35.1355 104.118 35.4358C103.714 37.158 100.892 40.9863 97.2389 43.4447C95.5663 44.5681 94.5005 44.7776 93.9031 44.9332C94.128 43.0742 94.9153 41.4423 96.0254 39.8272Z" fill="#D39F45"/>
<path d="M172.338 30.5333C172.697 30.8922 172.881 31.3307 172.881 31.8332C172.883 32.3524 172.706 32.7902 172.354 33.1445C172 33.5035 171.569 33.6793 171.06 33.6779C170.558 33.6692 170.122 33.4893 169.767 33.1216C169.409 32.7572 169.236 32.3208 169.234 31.8062C169.23 31.2997 169.405 30.8626 169.76 30.5077C170.113 30.1487 170.544 29.9709 171.046 29.9837C171.552 29.983 171.987 30.1689 172.338 30.5333ZM172.548 30.3258C172.136 29.9082 171.63 29.6961 171.044 29.6893C170.454 29.6833 169.963 29.8867 169.556 30.3002C169.148 30.7104 168.934 31.2182 168.942 31.8015C168.942 32.3969 169.149 32.9047 169.568 33.3277C169.974 33.748 170.471 33.9642 171.065 33.9689C171.646 33.9729 172.154 33.7736 172.564 33.3519C172.981 32.9384 173.184 32.4319 173.18 31.8399C173.177 31.2506 172.967 30.7447 172.548 30.3258ZM171.364 31.7274C171.281 31.7604 171.149 31.7752 170.976 31.7759L170.61 31.7719V30.9232L170.959 30.9259C171.182 30.93 171.346 30.9576 171.449 31.0162C171.556 31.0802 171.607 31.1906 171.605 31.3617C171.616 31.5408 171.524 31.6654 171.364 31.7274ZM170.203 32.9835L170.61 32.9882V32.0615L170.936 32.0635C171.147 32.0642 171.305 32.0918 171.387 32.141C171.534 32.2312 171.616 32.4104 171.612 32.6838V32.869L171.622 32.9485C171.621 32.9586 171.621 32.9627 171.628 32.9734C171.628 32.9788 171.628 32.9876 171.628 32.993L172.024 32.9983L172.008 32.9687C171.999 32.9492 171.994 32.9094 171.991 32.8455C171.982 32.7902 171.982 32.7269 171.981 32.6697L171.977 32.4993C171.977 32.3814 171.937 32.2608 171.85 32.1362C171.761 32.0083 171.628 31.9308 171.45 31.9059C171.594 31.8783 171.703 31.8399 171.783 31.7914C171.937 31.691 172.012 31.5375 172.012 31.3273C172.01 31.0344 171.889 30.8343 171.649 30.7319C171.509 30.6734 171.297 30.6424 171.015 30.6397L170.198 30.6329L170.203 32.9835Z" fill="#D39F45"/>
</svg>
