<svg width="153" height="108" viewBox="0 0 153 108" fill="none" xmlns="http://www.w3.org/2000/svg">
<path d="M26.9451 64.2928L23.3309 73.0515C23.3309 73.0515 29.0285 74.5821 34.2157 73.7743C39.403 72.9665 47.0988 66.8865 47.7791 60.8062C48.4594 54.726 44.7177 51.4097 42.8471 49.1136C40.9762 46.8177 41.2739 44.7767 43.6549 43.5012C46.036 42.2256 49.82 42.4381 52.201 46.6475L54.9645 39.7598C54.9645 39.7598 47.7789 36.4009 40.1683 40.0574C32.5576 43.7139 32.5574 50.8571 33.9605 53.7058C35.3636 56.5545 39.4878 57.6175 39.6155 61.0189C39.743 64.4203 37.4896 67.1415 33.5354 67.099C29.5812 67.0565 28.9434 66.4187 26.9451 64.2928ZM50.1918 76.4319C50.1918 76.4319 52.3284 71.2021 54.5288 65.1113C59.2482 52.1964 60.2688 51.2397 61.9589 51.1759C63.6489 51.1122 63.3619 52.898 63.2982 54.5561C63.0749 59.9771 55.6768 67.8855 54.3375 68.9379C52.8625 69.9424 53.317 69.9185 53.6891 69.8626C65.892 68.0343 69.3784 57.915 69.676 56.1292C70.909 48.0508 66.2745 47.583 63.8509 47.7106C61.4273 47.8381 53.8592 48.8161 53.8592 48.8161L42.8469 77.431L50.1918 76.4319ZM73.715 66.9715C73.715 66.9715 78.6045 54.5136 78.9873 53.4506C81.5809 49.4114 85.5351 50.3892 85.5351 50.3892L88.0862 43.8839C88.0862 43.8839 86.8532 43.6288 84.217 44.3941C81.5809 45.1595 79.1148 48.4759 79.1148 48.4759L80.1353 45.287L74.9056 45.8397L66.2744 67.8641L73.715 66.9715ZM89.9145 43.7565L81.3259 65.8234L88.894 65.0156L97.4827 42.8635L89.9145 43.7565ZM103.605 38.3567L102.202 42.3535L99.0135 42.5235L97.0576 47.8383L100.204 47.6257L93.5287 64.2928L100.927 63.3575L107.517 46.4352L111.089 45.9674L113.002 40.8227L109.43 41.2054L112.024 34.7001L103.605 38.3567ZM125.715 53.3231C125.395 53.7635 121.038 58.6378 117.636 57.66C114.235 56.6821 115.511 52.898 116.616 50.6444C117.721 48.391 120.91 42.0132 123.036 42.4385C123.929 42.8212 124.014 44.3093 120.698 48.6461C120.06 49.5814 119.295 50.3894 116.871 51.92C116.616 52.4302 116.658 53.0255 121.59 51.3247C126.522 49.6239 128.521 45.9674 128.649 43.1188C128.776 40.2701 124.822 39.3346 122.356 39.8874C119.89 40.4401 112.832 42.3535 108.665 52.1327C107.815 53.876 106.071 61.4016 113.512 62.0819C116.106 62.2945 122.101 60.8914 126.352 54.3011C126.523 53.8333 126.055 52.8555 125.715 53.3231ZM99.6193 33.9243C98.3777 32.6826 95.7542 33.2929 93.7597 35.2875C91.7651 37.282 91.1548 39.9055 92.3965 41.1471C93.6381 42.3887 96.2615 41.7784 98.2561 39.7839C100.251 37.7892 100.861 35.1659 99.6193 33.9243ZM137.662 81.9804C71.8443 46.5202 33.0677 107.789 33.0677 107.789C25.4143 66.1211 0.923828 71.9887 0.923828 71.9887C41.4863 58.0427 26.0521 15.7794 26.0521 15.7794C78.3495 62.4645 125.885 0.983154 125.885 0.983154C125.885 0.983154 118.019 25.8989 127.416 30.5759C136.812 35.2529 152.076 29.8106 152.076 29.8106C116.871 52.3877 137.662 81.9804 137.662 81.9804ZM141.064 35.5931C141.064 35.5931 113.682 41.1204 119.89 13.3985C119.89 13.3985 80.837 59.0418 30.6017 21.6471C30.6017 21.6471 41.7415 56.9161 5.00571 70.8833C5.00571 70.8833 30.5805 69.799 35.555 95.3738C35.555 95.3738 74.3104 50.1343 133.921 77.3461C133.921 77.346 119.465 54.131 141.064 35.5931ZM124.361 63.517C124.361 62.5522 123.576 61.7671 122.611 61.7671C121.646 61.7671 120.861 62.5522 120.861 63.517C120.861 64.4816 121.646 65.2667 122.611 65.2667C123.576 65.2667 124.361 64.4816 124.361 63.517ZM124.114 63.517C124.114 64.3456 123.44 65.0196 122.611 65.0196C121.782 65.0196 121.108 64.3456 121.108 63.517C121.108 62.6884 121.782 62.0142 122.611 62.0142C123.44 62.0142 124.114 62.6884 124.114 63.517ZM123.611 63.0181C123.531 63.4176 123.264 63.5508 122.972 63.5771L123.318 64.5087H122.785L122.733 64.3762L122.466 63.6041H122.253L122.067 64.5087H121.615L121.8 63.5771L122.067 62.353H122.865C123.424 62.353 123.717 62.5124 123.611 63.0181ZM122.759 62.7252H122.44L122.333 63.2578H122.733C122.946 63.2578 123.079 63.2046 123.131 62.9652C123.158 62.7522 122.945 62.7252 122.759 62.7252Z" fill="#008B47"/>
</svg>
