<svg width="197" height="65" viewBox="0 0 197 65" fill="none" xmlns="http://www.w3.org/2000/svg">
<path d="M79.9877 51.6913C74.049 47.8957 65.9893 47.2296 52.9912 50.8075C39.1345 54.0382 34.5144 56.1092 28.447 51.9518C26.1161 49.9095 25.2803 46.6212 25.9044 41.8846C27.3518 34.1631 31.2632 26.7324 38.2108 18.49C42.0889 14.2023 45.6861 10.5226 50.4362 9.04506C54.0767 8.11812 53.7364 10.9567 53.2959 11.3627C52.831 11.3627 52.0502 11.4353 51.4467 11.8261C50.9569 12.2029 49.6125 13.4198 49.5403 15.0568C49.4361 17.5626 52.05 17.0411 53.1774 15.6652C54.3925 14.1148 56.1884 11.1457 54.7758 8.37861C54.1836 7.39368 53.1606 6.71298 51.8904 6.48119C47.5409 6.23457 43.49 8.29171 39.7515 10.566C31.5756 16.201 25.0354 24.0092 21.3346 32.5561C19.2009 37.7129 17.2714 45.0999 20.1637 51.1122C22.4011 55.2839 27.0463 57.4997 32.5883 57.0364C36.4751 56.6312 41.1752 55.3848 44.3363 54.6322C47.4974 53.8785 63.6787 48.3599 68.9954 57.9647C68.9954 57.9647 70.7634 54.5596 75.1817 54.487C78.8142 54.1544 84.0545 55.5303 87.8708 58.3111C86.5994 56.4141 82.9948 53.6182 79.9877 51.6913Z" fill="#E61D2A"/>
<path d="M54.6417 19.4604C51.6153 17.4903 45.5325 21.2567 40.6605 27.7171C36.2052 33.5121 34.2814 40.2472 36.375 43.3617C39.4894 47.0265 45.2709 41.6959 47.7296 38.8427L48.0468 38.5091C49.7188 36.7273 51.0106 34.5833 52.2608 32.5261C52.2608 32.5261 53.41 30.643 53.4648 30.5559C54.1751 30.426 55.0305 30.2232 55.9945 29.9478C55.9807 29.991 52.3063 36.1187 52.6812 39.1602C52.7979 40.0881 52.7087 43.4777 56.0444 44.506C60.4901 45.2453 64.04 41.8262 67.1717 38.7841C67.1717 38.7841 67.7054 38.2776 68.0073 37.9884C67.9308 38.2918 67.8313 38.6966 67.8313 38.6966C66.5298 43.1874 68.2842 44.1295 69.3816 44.4773C72.6983 45.4339 76.6606 40.6532 76.6734 40.6532C76.5706 42.1591 76.2702 43.4049 77.8702 44.4045C79.3804 44.9409 80.9088 44.1232 82.0705 43.3554C86.255 40.4293 89.6262 35.8497 92.3492 31.891H90.6123C90.5918 31.891 86.3264 38.0246 83.5568 39.3577C83.5524 39.3577 83.0484 39.6144 82.758 39.4113C82.3985 39.1069 82.5403 38.4743 82.7623 38.0262C82.7763 37.9969 93.4562 19.6189 93.4562 19.6189H88.4136C88.4136 19.6189 87.8628 20.5031 87.8179 20.5611C87.784 20.5322 87.7032 20.3802 87.6471 20.3074C84.5229 16.0197 77.448 22.6149 72.1216 30.2631C70.0709 33.2041 67.46 36.5153 64.7528 38.9054C64.7528 38.9054 60.7422 42.553 59.0285 39.9323C58.4021 38.8312 58.5948 37.2214 58.9481 36.1642C60.9433 30.5292 64.3813 25.4151 68.2935 22.3293C69.398 21.4752 70.5984 21.2282 71.1941 21.5904C71.7617 21.9241 71.8532 22.7491 71.4941 23.3142C70.583 23.2853 69.853 23.56 69.2595 24.1685C68.0905 25.3854 67.6843 26.559 68.0559 27.6601C69.8616 30.2095 73.4628 25.1683 73.2886 22.0973C73.2264 20.9962 72.6343 19.9535 71.7507 19.4459C70.4338 18.6641 68.4248 18.8666 67.1247 19.4899C65.3842 20.1415 62.6291 22.4156 61.0209 24.1831C58.9964 26.3998 55.5243 28.8622 54.4384 28.5864C54.7941 27.6445 57.727 21.6909 54.6417 19.4604ZM78.9531 28.2678C79.934 26.9208 82.7891 23.3136 83.4851 22.7054C85.8261 20.6621 86.7617 21.5611 86.8427 22.198C84.658 26.0802 82.0795 30.5276 79.6551 34.5259C79.6601 34.5116 78.8964 35.6702 78.8964 35.6702C77.8257 37.2922 76.7476 38.6829 74.989 39.6534C74.7382 39.7263 74.3249 39.7554 74.0497 39.5519C73.7186 39.3345 73.5879 38.9723 73.6252 38.5954C73.7305 37.35 75.0087 33.541 78.9531 28.2678ZM51.5207 30.5998C51.5207 30.5998 51.4768 30.7307 51.4551 30.7734C51.4495 30.7734 49.2566 34.322 49.2566 34.322C47.9331 36.0751 46.2806 38.2776 44.215 39.3345C43.6027 39.5374 42.7564 39.6681 42.3251 39.1325C41.4108 38.0458 41.882 36.5393 42.2648 35.3226L42.4003 34.8879C43.498 31.9331 45.2396 29.3251 46.9348 26.906C46.9559 26.8917 47.0034 26.8773 47.0206 26.8773C47.0245 26.8917 47.0313 26.8917 47.0343 26.9208C48.0981 28.9485 50.0927 29.8896 51.5843 30.3249C51.5933 30.3249 51.6029 30.3393 51.6029 30.3684C51.6031 30.4116 51.5788 30.47 51.5207 30.5998ZM53.5983 26.4139C53.5887 26.4428 52.6215 28.6444 52.6215 28.6444C52.4817 28.7602 52.2606 28.7024 52.0073 28.6444L51.5732 28.5716C50.21 28.1518 49.1817 27.2535 48.8647 26.1817C48.4274 24.0957 50.2235 22.4587 51.015 21.8651C51.7743 21.3432 52.9547 21.068 53.6402 21.6042C54.0629 22.0969 54.2231 22.7341 54.2231 23.4298C54.2233 24.3712 53.9305 25.4286 53.5983 26.4139Z" fill="#E61D2A"/>
<path d="M117.347 33.1348C116.861 32.0921 115.706 31.4256 114.476 31.4979C110.482 31.8603 106.574 35.1195 104.523 39.7981C103.446 42.203 102.859 44.1873 102.474 47.3452C103.716 45.926 106.249 43.5939 109.125 42.319C109.125 42.319 109.516 39.2916 111.511 36.5971C112.266 35.4813 113.777 33.6852 115.473 34.1631C116.955 34.6559 116.434 38.7265 114.464 42.6658C113.007 45.5634 110.776 48.4613 108.52 50.4599C106.524 52.1404 103.572 54.1682 100.99 52.6039C99.3628 51.6483 98.5331 49.6488 98.7085 47.0703C99.4857 39.7551 102.842 33.5261 107.645 26.4281C112.597 19.8371 118.056 13.0722 125.411 9.46462C126.911 8.71148 128.3 8.53769 129.501 9.00126C129.501 9.00126 122.597 12.7676 119.306 19.7355C118.469 21.5031 117.305 23.8926 118.477 26.0077C119.09 27.1084 120.178 27.1955 121.054 27.1375C125.087 26.2102 127.694 22.473 129.823 19.0546C131.057 16.4617 132.155 13.8831 132.155 11.0149C132.155 10.6673 132.136 10.2039 132.107 9.85594C134.034 8.84231 137.986 10.6382 137.986 10.6382C141.074 11.6526 147.649 16.6505 149.867 17.6061C150.949 16.3605 152.727 14.4775 153.728 13.5358L152.279 12.652C149.959 11.2468 147.506 9.91394 145.092 8.59588C139.61 5.62665 135.148 6.66937 132.877 7.48071C131.984 7.79919 131.168 8.07452 131.168 8.07452C129.483 6.24935 126.719 6.42275 124.682 6.91561C117.358 9.00145 110.557 14.0858 103.267 22.908C97.9065 29.818 94.5816 35.7863 92.8094 41.6819C91.4434 45.6507 91.0283 51.4886 94.3623 54.9509C97.197 57.8906 100.956 57.2539 103.61 56.1967C109.361 53.3864 114.53 47.3309 117.106 40.3632C117.727 38.292 118.417 35.3659 117.347 33.1348ZM130.571 11.3048C129.81 19.9675 123.023 25.0525 121.344 25.4574C120.326 25.6599 118.59 25.2112 120.14 21.5757C122.423 16.679 126.32 12.5219 130.502 10.3923C130.603 10.7546 130.601 10.9858 130.571 11.3048Z" fill="#E61D2A"/>
<path d="M170.829 12.4053C167.179 14.4627 163.394 15.795 158.813 15.3316C157.543 16.7516 156.307 18.2146 155.168 19.7209C161.598 21.3433 168.414 17.7364 172.216 14.3035C176.237 10.8413 178.3 6.48132 178.3 6.48132C178.3 6.48132 175.285 9.89968 170.829 12.4053Z" fill="#E61D2A"/>
<path d="M99.1345 23.9737L101.837 19.6191H97.0479L94.3467 23.9737H99.1345Z" fill="#E61D2A"/>
<path d="M158.795 52.0944C158.28 52.442 157.556 52.1748 157.827 51.3783C158.501 49.3502 161.179 45.2173 161.179 45.2173L168.64 32.089H163.529C163.287 32.4849 162.767 33.394 162.767 33.394C162.531 33.0033 161.824 32.1344 161.533 31.9467C160.284 31.1639 158.452 31.534 157.189 32.2436C151.695 35.431 147.686 41.7283 144.525 46.6393C144.525 46.6393 141.197 52.0984 139.349 52.5043C137.907 52.6203 138.056 50.6928 138.118 50.2437C138.676 46.9984 139.971 43.9131 141.276 41.1173C143.929 39.2921 146.958 36.902 149.71 34.2802C155.683 28.6157 160.718 22.1984 161.454 20.7643C161.454 20.7643 160.657 20.9239 159.716 20.9526C155.122 27.3119 145.719 36.5543 142.868 37.9301C144.131 34.9165 152.29 20.5324 159.233 13.6517L160.326 12.6084C162.015 10.9715 163.766 9.29118 165.13 9.01585C165.274 9.00141 165.459 9.01585 165.62 9.34957C165.681 10.6241 165.202 11.5659 164.654 12.6377L163.885 14.2024C163.885 14.2024 164.974 13.9995 165.689 13.7671C166.519 12.2179 167.438 10.479 167.099 8.40799C166.986 7.74154 166.5 7.23463 165.865 7.11864C163.793 6.72752 161.536 8.24806 159.72 9.47982L159.646 9.52297C150.31 16.7805 142.425 27.2394 135.532 41.5227C135.033 41.8987 133.103 42.3483 132.774 42.1307C133.455 40.7404 134.312 38.8713 134.741 36.8433C134.815 36.2637 134.884 35.6701 134.884 35.0907C134.884 33.8439 134.583 32.671 133.457 31.86C132.137 31.208 130.506 31.5125 129.406 32.0047C124.479 34.0328 120.796 39.0453 118.139 43.1732C116.709 45.7959 115.284 48.6048 114.89 51.8213C114.612 54.3414 115.178 55.9639 116.622 56.7754C118.107 57.5282 119.976 56.7457 120.711 56.3694C125.703 53.762 129.19 48.533 131.94 43.7522C132.049 43.738 133.55 43.6948 134.685 43.4046C134.7 43.4046 134.707 43.4046 134.732 43.4199C134.667 43.6362 134.08 45.3751 134.08 45.3751C132.338 50.4448 131.532 53.8929 133.178 55.935C135.53 58.8179 139.423 55.834 142.591 51.8931C141.911 56.6155 144.378 57.3546 146.258 56.9927C148.418 56.4136 150.825 54.1242 151.942 52.9513C151.583 54.3271 151.681 56.79 153.646 57.0361C154.993 57.2831 156.001 56.5563 157.167 55.9332C161.35 53.6732 166.358 46.1423 167.658 43.965H165.953C164.105 46.7363 161.753 50.3698 158.795 52.0944ZM121.245 51.5901C120.98 51.199 120.892 50.7712 120.883 50.3088C120.832 47.4685 123.912 42.3817 126.086 39.6106C126.091 39.6106 126.091 39.6106 126.091 39.6106C127.002 41.59 129.065 42.8623 130.311 43.3985C128.764 46.8174 123.459 54.1395 121.245 51.5901ZM131.184 41.87C131.036 41.972 128.435 41.1024 127.932 38.7124C127.505 36.6546 128.934 35.0468 130.315 34.2362C130.909 33.7725 131.802 33.6135 132.457 33.8443C133.066 34.2505 133.23 34.9753 133.23 35.7564C133.23 36.2354 133.166 36.7275 133.11 37.1764C133.11 37.1764 133.099 37.2637 133.097 37.2781C132.664 38.8856 132 40.4647 131.184 41.87ZM152.051 50.6776C152.049 50.6776 151.557 51.1121 151.557 51.1121C150.855 51.7346 150.133 52.401 149.261 52.0677C149.021 51.9808 148.851 51.6625 148.811 51.4155C148.771 49.6337 149.58 47.9827 150.364 46.3751L150.565 45.9546C152.821 42.2174 155.443 37.8137 159.294 34.7576C159.943 34.2931 160.648 33.9027 161.391 34.2071C161.562 34.3661 161.761 34.6416 161.761 34.9166C161.761 35.0038 161.683 35.2354 161.638 35.3075C160.562 37.0321 159.538 38.8426 158.542 40.5807C156.595 44.0141 154.576 47.5627 152.051 50.6776Z" fill="#E61D2A"/>
</svg>
