<svg width="197" height="51" viewBox="0 0 197 51" fill="none" xmlns="http://www.w3.org/2000/svg">
<path d="M182.283 11.3123C182.283 12.0983 181.723 12.6269 181.063 12.6269V12.6227C180.386 12.6269 179.839 12.0983 179.839 11.3123C179.839 10.527 180.386 10.0026 181.063 10.0026C181.723 10.0026 182.283 10.527 182.283 11.3123ZM182.776 11.3123C182.776 10.233 181.966 9.60474 181.063 9.60474C180.155 9.60474 179.347 10.233 179.347 11.3123C179.347 12.3923 180.155 13.0198 181.063 13.0198C181.966 13.0198 182.776 12.3923 182.776 11.3123ZM180.779 11.4562H180.964L181.388 12.2297H181.854L181.384 11.4258C181.628 11.4071 181.826 11.2853 181.826 10.9463C181.826 10.527 181.547 10.3907 181.072 10.3907H180.386V12.2297H180.779V11.4562ZM180.779 11.1449V10.7021H181.054C181.204 10.7021 181.406 10.7159 181.406 10.9055C181.406 11.1089 181.302 11.1449 181.126 11.1449H180.779Z" fill="black"/>
<path d="M155.73 45.8128H14.2246L15.8118 41.6014C17.381 37.4376 25.799 15.1259 26.5968 13.3153C27.535 11.0681 29.0758 8.78349 30.9951 7.39281C33.6034 5.58078 36.4796 4.93457 39.438 4.96224L39.82 4.95947H180.774L179.164 9.18201C176.213 16.9234 169.016 35.7951 168.264 37.666C167.118 40.5822 165.432 42.3098 163.55 43.6071C161.874 44.73 159.417 45.8128 155.73 45.8128Z" fill="#211E1E"/>
<path d="M178.528 6.50659L177.719 8.63135C174.771 16.3659 167.579 35.2251 166.827 37.0952C165.811 39.6794 164.352 41.1752 162.68 42.3279C161.232 43.2986 159.08 44.2672 155.73 44.2672H16.458L17.2571 42.1473C18.8222 37.994 27.2146 15.7439 28.0096 13.9381C28.8779 11.8507 30.2638 9.83037 31.8876 8.65349C34.177 7.06425 36.7121 6.48168 39.4263 6.50797L39.8227 6.50659H178.528Z" fill="#EB1928"/>
<path d="M171.096 8.42163C168.232 16.3962 161.7 34.5843 161.005 36.4171C160.194 38.6124 159.083 39.8149 157.771 40.7753C156.692 41.5412 155.058 42.3514 152.345 42.3514H23.8818C25.678 37.2903 33.0977 16.4121 33.82 14.6679C34.5617 12.7632 35.6881 11.0812 36.8539 10.1845C38.6057 8.89211 40.5485 8.40088 42.786 8.42371L43.179 8.42163H171.096Z" fill="white"/>
<path d="M150.856 35.8153C150.66 36.2179 149.944 36.9949 149.064 36.7209C148.579 36.5674 148.162 35.9398 148.333 35.4617C148.649 34.4087 150.896 28.1562 150.896 28.1562L143.709 28.1527L139.63 39.9292C142.251 40.9629 146.56 40.9123 148.255 40.9123C149.951 40.9144 152.401 40.8383 154.056 40.1125C155.685 39.4317 157.809 38.1275 159.145 34.3603C160.512 30.62 161.185 29.0868 161.05 27.7542C160.886 26.4998 160.015 25.6454 159.164 24.9922C158.372 24.3135 155.594 21.8269 155.594 21.8269C155.594 21.8269 154.772 21.2229 154.608 20.0439C154.52 18.8131 155.813 16.0497 156.097 15.2713C156.412 14.4175 157.324 14.3179 157.809 14.5193C158.819 15.0465 158.566 15.6491 158.166 16.8294C157.711 18.0596 156.407 21.4498 156.407 21.4498L163.489 21.4526L167.33 10.5527C165.647 9.97361 162.311 9.74668 159.947 9.74668C157.657 9.74529 154.94 9.72177 153.363 10.5001C151.732 11.2508 149.848 12.6325 148.354 16.2496C146.805 19.7886 146.487 20.944 146.629 21.9493C146.896 23.3815 148.641 25.1154 149.807 26.046C151.289 27.2263 153.1 28.3063 153 29.3856C152.673 32.3503 150.856 35.8153 150.856 35.8153Z" fill="#234AA3"/>
<path d="M51.0363 39.1023L46.627 39.1009L56.8709 11.7627L64.6262 11.7648L62.3464 28.1595L68.19 11.7662L72.5994 11.7668L62.379 39.0822L54.7683 39.0801L56.8474 23.0016L51.0363 39.1023Z" fill="#234AA3"/>
<path d="M64.5039 39.0816L71.3155 39.0858L81.6106 11.7455L74.5327 11.7662L64.5039 39.0816Z" fill="#234AA3"/>
<path d="M88.3564 22.7388L94.6331 22.7401L98.464 12.4747C96.9814 11.5248 94.631 11.4791 91.9659 11.4335C89.2545 11.3857 87.2189 11.3636 85.3329 12.3364C83.2524 13.4669 82.4775 14.731 82.1447 15.6145C81.7891 16.4959 75.8604 32.3247 75.5802 33.0699C75.2744 33.8829 74.2047 36.5279 75.1484 37.8881C75.785 38.7696 78.9247 39.3134 79.8442 39.3791C81.5642 39.4705 83.8405 39.494 85.5937 39.065C86.689 38.7938 89.4772 37.5069 90.5268 34.6121C91.0665 33.0976 93.2895 27.1038 93.2895 27.1038H86.7706C86.7706 27.1038 84.3151 33.7722 83.9602 34.6329C83.7803 35.1531 83.1175 35.5821 82.537 35.4015C81.7919 35.1767 81.5393 34.5208 81.7407 33.9991C82.0229 33.3224 87.8748 17.4916 88.1834 16.6537C88.3889 16.0891 88.8151 15.3675 89.8259 15.6608C90.7157 15.977 90.6036 16.7935 90.4251 17.2881C90.2224 17.8541 88.3564 22.7388 88.3564 22.7388Z" fill="#234AA3"/>
<path d="M130.212 11.7808L128.706 15.7618L123.036 15.7162L120.37 23.2445L124.854 23.2452L123.249 27.2705L118.887 27.2906L116.169 35.0258L121.744 35.0023L120.233 39.0961L107.852 39.0941L117.806 11.7787L130.212 11.7808Z" fill="#234AA3"/>
<path fill-rule="evenodd" clip-rule="evenodd" d="M138.279 19.543C138.099 20.1802 137.612 21.4 137.362 21.8538C137.11 22.3734 136.758 22.9851 135.74 23.0079C134.937 23.0051 134.575 22.9851 134.575 22.9851L137.341 15.5128C137.341 15.5128 137.946 15.4892 138.043 15.5128C138.723 15.4886 139.076 15.9895 139.137 16.6682C139.173 17.1892 138.766 18.2761 138.532 19.0234C138.409 19.2261 138.33 19.4087 138.279 19.543ZM145.595 12.5965C145.19 12.1191 144.884 11.7344 142.24 11.7116C140.517 11.7102 132.269 11.7081 132.269 11.7081L122.327 39.0802H129.023C129.023 39.0802 132.387 29.4368 133.209 27.1529C133.209 27.1529 133.574 26.9682 133.888 27.0568C134.421 27.1951 134.68 27.5812 134.667 28.3049C134.629 29.0293 134.475 29.369 134.117 30.3653C133.705 31.4045 132.422 35.2313 132.165 36C131.909 36.7265 131.533 37.3824 131.514 38.3344C131.517 39.2394 131.888 39.1024 131.888 39.1024L138.61 39.0816C138.61 39.0816 138.4 38.5835 138.413 37.7248C138.433 36.797 139.275 34.5989 139.738 33.3307C140.248 32.021 141.018 29.7336 141.16 28.7366C141.325 27.831 141.381 27.3543 141.17 26.9474C140.939 26.4036 140.565 25.6585 139.676 25.2724C139.676 25.2724 140.749 24.9112 141.264 24.5695C141.731 24.3204 143.018 23.0542 143.295 22.4662C143.952 21.1523 144.484 19.9546 144.814 19.1389C145.299 18.007 146.099 15.5155 146.185 14.8375C146.245 14.1332 146.048 13.0704 145.595 12.5965Z" fill="#234AA3"/>
<path d="M38.7217 35.7854C38.5252 36.1901 37.8112 36.9671 36.9283 36.6931C36.4447 36.5389 36.0289 35.9113 36.1977 35.4339C36.5139 34.3795 38.7611 28.1277 38.7611 28.1277L31.576 28.1256L27.498 39.9041C30.1168 40.933 34.4251 40.8838 36.1189 40.8845C37.8167 40.8838 40.2674 40.8112 41.923 40.082C43.5496 39.4025 45.6765 38.0997 47.0118 34.3338C48.3783 30.5915 49.0528 29.0576 48.9172 27.7271C48.7532 26.4699 47.8801 25.6162 47.0305 24.9637C46.2369 24.2836 43.4604 21.7984 43.4604 21.7984C43.4604 21.7984 42.6357 21.1937 42.471 20.0161C42.3838 18.7846 43.6783 16.0212 43.9613 15.2435C44.2761 14.3884 45.1922 14.288 45.6709 14.4908C46.6866 15.018 46.4334 15.6199 46.0307 16.8002C45.5761 18.0304 44.2726 21.422 44.2726 21.422L51.3533 21.4234L55.1953 10.5235C53.512 9.9465 50.1792 9.71887 47.8116 9.7168C45.5229 9.71749 42.8038 9.69189 41.2284 10.4696C39.599 11.223 37.7157 12.604 36.2192 16.2205C34.6701 19.7615 34.3532 20.9155 34.4936 21.9215C34.7635 23.3544 36.5056 25.0848 37.6721 26.0161C39.1562 27.1985 40.9655 28.2778 40.8644 29.3572C40.5393 32.3212 38.7217 35.7854 38.7217 35.7854Z" fill="#234AA3"/>
<path d="M102.228 23.1193L106.466 11.8638L99.6889 11.8493L90.2012 39.0719L96.9539 39.0872L101.025 26.9502L101.717 39.0962L107.852 39.0941C107.852 39.0941 108.056 25.7554 105.414 25.5173L117.406 11.8465L111.472 11.8438L102.228 23.1193Z" fill="#234AA3"/>
</svg>
